<svg width="160" height="160" viewBox="0 0 160 160" fill="#25021d" xmlns="http://www.w3.org/2000/svg">
<path fill-rule="evenodd" clip-rule="evenodd" d="M80 144C115.346 144 144 115.346 144 80C144 44.6538 115.346 16 80 16C44.6538 16 16 44.6538 16 80C16 115.346 44.6538 144 80 144ZM80 125C104.853 125 125 104.853 125 80C125 55.1472 104.853 35 80 35C55.1472 35 35 55.1472 35 80C35 104.853 55.1472 125 80 125Z" fill="#25021d"/>
<path d="M67.6941 1.63142C67.8715 0.685476 68.6974 0 69.6599 0H90.3401C91.3026 0 92.1285 0.685477 92.3059 1.63142L97.5559 29.6314C97.7867 30.8622 96.8424 32 95.5901 32H64.4099C63.1576 32 62.2133 30.8622 62.4441 29.6314L67.6941 1.63142Z" fill="#25021d"/>
<path d="M158.369 67.6941C159.315 67.8715 160 68.6974 160 69.6599V90.3401C160 91.3026 159.315 92.1285 158.369 92.3059L130.369 97.5559C129.138 97.7867 128 96.8424 128 95.5901V64.4099C128 63.1576 129.138 62.2133 130.369 62.4441L158.369 67.6941Z" fill="#25021d"/>
<path d="M92.3059 158.369C92.1285 159.315 91.3026 160 90.3401 160H69.6599C68.6974 160 67.8715 159.315 67.6941 158.369L62.4441 130.369C62.2133 129.138 63.1576 128 64.4099 128H95.5901C96.8424 128 97.7867 129.138 97.5559 130.369L92.3059 158.369Z" fill="#25021d"/>
<path d="M1.63142 92.3059C0.685477 92.1285 9.46034e-07 91.3026 9.03964e-07 90.3401L0 69.6599C-4.20692e-08 68.6974 0.685477 67.8715 1.63142 67.6941L29.6314 62.4441C30.8622 62.2133 32 63.1576 32 64.4099V95.5901C32 96.8424 30.8623 97.7867 29.6314 97.5559L1.63142 92.3059Z" fill="#25021d"/>
<path d="M15.8835 33.2866C15.34 32.4923 15.4393 31.4236 16.1199 30.743L30.743 16.1199C31.4236 15.4393 32.4923 15.34 33.2866 15.8835L56.7979 31.9701C57.8314 32.6773 57.9683 34.1495 57.0828 35.035L35.035 57.0828C34.1495 57.9683 32.6773 57.8314 31.9701 56.7979L15.8835 33.2866Z" fill="#25021d"/>
<path d="M126.713 15.8835C127.508 15.34 128.576 15.4393 129.257 16.1199L143.88 30.743C144.561 31.4236 144.66 32.4923 144.117 33.2866L128.03 56.7979C127.323 57.8314 125.851 57.9683 124.965 57.0828L102.917 35.035C102.032 34.1495 102.169 32.6773 103.202 31.9701L126.713 15.8835Z" fill="#25021d"/>
<path d="M144.117 126.713C144.66 127.508 144.561 128.576 143.88 129.257L129.257 143.88C128.576 144.561 127.508 144.66 126.713 144.117L103.202 128.03C102.169 127.323 102.032 125.851 102.917 124.965L124.965 102.917C125.851 102.032 127.323 102.169 128.03 103.202L144.117 126.713Z" fill="#25021d"/>
<path d="M33.2866 144.117C32.4923 144.66 31.4236 144.561 30.7431 143.88L16.1199 129.257C15.4393 128.576 15.34 127.508 15.8835 126.713L31.9702 103.202C32.6773 102.169 34.1495 102.032 35.035 102.917L57.0828 124.965C57.9683 125.851 57.8315 127.323 56.7979 128.03L33.2866 144.117Z" fill="#25021d"/>
</svg>
