<svg width="162" height="160" viewBox="0 0 162 160" fill="none" xmlns="http://www.w3.org/2000/svg">
<circle cx="79.5" cy="79.5" r="45.5" fill="#1A182E"/>
<path d="M136.744 23.6066L129.257 16.1199C128.576 15.4393 127.508 15.34 126.713 15.8835L113.088 25.206C107.651 21.9156 101.685 19.4117 95.3472 17.852L92.3059 1.63142C92.1285 0.685477 91.3026 0 90.3401 0H69.6599C68.6974 0 67.8715 0.685476 67.6941 1.63142L64.6528 17.852C58.3151 19.4117 52.3489 21.9157 46.9118 25.206L33.2866 15.8835C32.4923 15.34 31.4236 15.4393 30.743 16.1199L16.1199 30.743C15.4393 31.4236 15.34 32.4923 15.8835 33.2866L25.206 46.9118C21.9156 52.3489 19.4117 58.3151 17.852 64.6528L1.63142 67.6941C0.685477 67.8715 0 68.6974 0 69.6599V90.3401C0 91.3026 0.685477 92.1285 1.63142 92.3059L17.852 95.3472C19.4117 101.685 21.9157 107.651 25.206 113.088L15.8835 126.713C15.34 127.508 15.4393 128.576 16.1199 129.257L30.7431 143.88C31.4236 144.561 32.4923 144.66 33.2866 144.117L46.9118 134.794C52.3489 138.084 58.3151 140.588 64.6528 142.148L67.6941 158.369C67.8715 159.315 68.6974 160 69.6599 160H90.3401C91.3026 160 92.1285 159.315 92.3059 158.369L95.3472 142.148C101.685 140.588 107.651 138.084 113.088 134.794L126.713 144.117C127.508 144.66 128.576 144.561 129.257 143.88L136.393 136.744L111.644 111.994C103.515 120.035 92.3373 125 80 125C55.1472 125 35 104.853 35 80C35 55.1472 55.1472 35 80 35C92.5155 35 103.838 40.1093 111.994 48.3558L136.744 23.6066Z" fill="#349892"/>
<path d="M74.184 88.764C74.256 88.404 74.292 87.912 74.292 87.288C74.292 86.928 74.268 86.58 74.22 86.244C74.172 85.884 74.088 85.572 73.968 85.308C73.848 85.02 73.668 84.804 73.428 84.66C73.188 84.492 72.876 84.408 72.492 84.408C72.06 84.408 71.664 84.504 71.304 84.696C70.944 84.888 70.62 85.14 70.332 85.452C70.068 85.74 69.852 86.088 69.684 86.496C69.54 86.88 69.468 87.288 69.468 87.72C69.468 88.344 69.624 88.824 69.936 89.16C70.272 89.496 70.704 89.772 71.232 89.988C71.76 90.204 72.36 90.384 73.032 90.528C73.704 90.672 74.4 90.84 75.12 91.032C75.72 91.2 76.32 91.416 76.92 91.68C77.52 91.944 78.048 92.304 78.504 92.76C78.984 93.192 79.368 93.768 79.656 94.488C79.944 95.184 80.088 96.06 80.088 97.116C80.088 98.628 79.788 99.9 79.188 100.932C78.588 101.964 77.76 102.804 76.704 103.452C75.648 104.1 74.388 104.568 72.924 104.856C71.484 105.144 69.912 105.288 68.208 105.288C66.48 105.288 65.064 105.18 63.96 104.964C62.88 104.724 62.028 104.472 61.404 104.208C60.66 103.896 60.108 103.536 59.748 103.128L60.972 98.196H67.308C67.284 98.412 67.26 98.712 67.236 99.096C67.212 99.456 67.2 99.744 67.2 99.96C67.2 100.248 67.236 100.548 67.308 100.86C67.38 101.172 67.488 101.46 67.632 101.724C67.8 101.988 68.028 102.204 68.316 102.372C68.604 102.54 68.964 102.624 69.396 102.624C69.876 102.624 70.296 102.516 70.656 102.3C71.04 102.084 71.352 101.82 71.592 101.508C71.856 101.172 72.048 100.812 72.168 100.428C72.312 100.02 72.384 99.624 72.384 99.24C72.384 98.712 72.252 98.268 71.988 97.908C71.748 97.548 71.412 97.248 70.98 97.008C70.548 96.744 70.044 96.528 69.468 96.36C68.916 96.168 68.34 95.976 67.74 95.784C67.164 95.616 66.552 95.412 65.904 95.172C65.28 94.932 64.704 94.596 64.176 94.164C63.648 93.732 63.204 93.192 62.844 92.544C62.508 91.872 62.34 91.02 62.34 89.988C62.34 88.452 62.724 87.168 63.492 86.136C64.284 85.08 65.268 84.228 66.444 83.58C67.644 82.932 68.952 82.476 70.368 82.212C71.784 81.924 73.128 81.78 74.4 81.78C76.08 81.78 77.52 81.984 78.72 82.392C79.944 82.776 80.868 83.232 81.492 83.76L80.16 88.764H74.184Z" fill="white"/>
<path d="M88.0769 105H80.7689L84.0449 89.52H91.4249L88.0769 105ZM92.3609 84.804C92.3609 85.356 92.2409 85.836 92.0009 86.244C91.7849 86.652 91.4849 87 91.1009 87.288C90.7409 87.576 90.3209 87.792 89.8409 87.936C89.3609 88.08 88.8689 88.152 88.3649 88.152C87.4049 88.152 86.6009 87.924 85.9529 87.468C85.3049 87.012 84.9809 86.292 84.9809 85.308C84.9809 84.78 85.0889 84.312 85.3049 83.904C85.5209 83.472 85.8089 83.124 86.1689 82.86C86.5529 82.572 86.9849 82.356 87.4649 82.212C87.9689 82.068 88.4849 81.996 89.0129 81.996C89.9489 81.996 90.7409 82.224 91.3889 82.68C92.0369 83.136 92.3609 83.844 92.3609 84.804Z" fill="white"/>
<path d="M106.364 89.52H112.196L109.244 103.524C109.028 104.604 108.668 105.6 108.164 106.512C107.66 107.424 106.952 108.216 106.04 108.888C105.152 109.56 104.024 110.088 102.656 110.472C101.312 110.856 99.6678 111.048 97.7238 111.048C97.3638 111.048 96.9318 111.036 96.4278 111.012C95.9238 111.012 95.4078 111 94.8798 110.976C94.3518 110.976 93.8478 110.964 93.3678 110.94C92.8878 110.916 92.5038 110.892 92.2158 110.868L92.8998 108.276C93.6678 108.396 94.4478 108.456 95.2398 108.456C96.0558 108.48 96.7518 108.492 97.3278 108.492C98.0478 108.492 98.6478 108.42 99.1278 108.276C99.6318 108.156 100.04 107.952 100.352 107.664C100.688 107.376 100.952 106.992 101.144 106.512C101.36 106.032 101.528 105.444 101.648 104.748L102.08 102.408H101.828C101.684 102.624 101.468 102.888 101.18 103.2C100.916 103.488 100.568 103.776 100.136 104.064C99.7038 104.328 99.1878 104.556 98.5878 104.748C98.0118 104.916 97.3518 105 96.6078 105C95.7678 105 95.0478 104.88 94.4478 104.64C93.8718 104.376 93.4038 104.028 93.0438 103.596C92.6838 103.14 92.4198 102.612 92.2518 102.012C92.0838 101.388 91.9998 100.716 91.9998 99.996C91.9998 99.684 92.0238 99.204 92.0718 98.556C92.1198 97.908 92.2278 97.176 92.3958 96.36C92.5878 95.544 92.8518 94.716 93.1878 93.876C93.5478 93.012 94.0158 92.232 94.5918 91.536C95.1918 90.84 95.9238 90.264 96.7878 89.808C97.6758 89.352 98.7438 89.124 99.9918 89.124C100.376 89.124 100.796 89.16 101.252 89.232C101.708 89.304 102.152 89.436 102.584 89.628C103.016 89.82 103.4 90.096 103.736 90.456C104.072 90.816 104.336 91.284 104.528 91.86H104.744L106.364 89.52ZM102.332 92.652C101.756 92.652 101.276 92.964 100.892 93.588C100.508 94.188 100.196 94.896 99.9558 95.712C99.7158 96.528 99.5358 97.344 99.4158 98.16C99.3198 98.952 99.2718 99.54 99.2718 99.924C99.2718 100.404 99.3438 100.812 99.4878 101.148C99.6558 101.46 99.9438 101.616 100.352 101.616C100.592 101.616 100.82 101.556 101.036 101.436C101.276 101.316 101.492 101.184 101.684 101.04C101.9 100.872 102.08 100.704 102.224 100.536C102.392 100.368 102.512 100.236 102.584 100.14L103.916 93.84C103.724 93.576 103.496 93.312 103.232 93.048C102.992 92.784 102.692 92.652 102.332 92.652Z" fill="white"/>
<path d="M122.136 91.824C122.64 91.344 123.204 90.9 123.828 90.492C124.38 90.156 125.04 89.844 125.808 89.556C126.576 89.268 127.44 89.124 128.4 89.124C129.552 89.124 130.404 89.388 130.956 89.916C131.532 90.444 131.856 91.092 131.928 91.86H132.144C132.696 91.356 133.296 90.9 133.944 90.492C134.496 90.156 135.144 89.844 135.888 89.556C136.632 89.268 137.424 89.124 138.264 89.124C139.512 89.124 140.52 89.472 141.288 90.168C142.08 90.84 142.476 91.716 142.476 92.796C142.476 93.348 142.38 94.08 142.188 94.992C141.996 95.904 141.78 96.9 141.54 97.98L140.028 105H132.936L134.88 95.604C134.952 95.244 135.024 94.896 135.096 94.56C135.168 94.224 135.204 93.948 135.204 93.732C135.204 93.396 135.108 93.12 134.916 92.904C134.724 92.664 134.448 92.544 134.088 92.544C133.632 92.544 133.2 92.712 132.792 93.048C132.408 93.36 132.108 93.624 131.892 93.84L129.552 105H122.82L124.8 95.604C124.848 95.292 124.908 94.98 124.98 94.668C125.052 94.332 125.088 94.032 125.088 93.768C125.088 93.408 124.992 93.12 124.8 92.904C124.632 92.664 124.368 92.544 124.008 92.544C123.576 92.544 123.156 92.7 122.748 93.012C122.364 93.324 122.064 93.588 121.848 93.804L119.472 105H112.128L115.404 89.52H121.272L121.92 91.824H122.136Z" fill="white"/>
<path d="M146.088 90.852C147.312 90.252 148.56 89.82 149.832 89.556C151.128 89.268 152.568 89.124 154.152 89.124C155.688 89.124 156.96 89.244 157.968 89.484C158.976 89.724 159.78 90.072 160.38 90.528C160.98 90.984 161.4 91.524 161.64 92.148C161.88 92.772 162 93.48 162 94.272C162 94.728 161.964 95.22 161.892 95.748C161.844 96.276 161.784 96.72 161.712 97.08L160.02 105H154.224L153.576 102.696H153.36C152.592 103.536 151.692 104.184 150.66 104.64C149.652 105.072 148.644 105.288 147.636 105.288C147.06 105.288 146.496 105.204 145.944 105.036C145.392 104.868 144.9 104.616 144.468 104.28C144.036 103.92 143.688 103.476 143.424 102.948C143.16 102.396 143.028 101.736 143.028 100.968C143.028 99.72 143.364 98.736 144.036 98.016C144.732 97.272 145.632 96.72 146.736 96.36C147.864 95.976 149.124 95.736 150.516 95.64C151.932 95.544 153.348 95.496 154.764 95.496C154.812 95.256 154.872 94.92 154.944 94.488C155.016 94.032 155.052 93.636 155.052 93.3C155.052 92.868 154.932 92.472 154.692 92.112C154.476 91.728 154.008 91.536 153.288 91.536C152.448 91.536 151.824 91.788 151.416 92.292C151.032 92.772 150.78 93.36 150.66 94.056H145.404L146.088 90.852ZM154.368 97.188H153.72C153.024 97.188 152.424 97.284 151.92 97.476C151.44 97.644 151.044 97.872 150.732 98.16C150.444 98.448 150.228 98.772 150.084 99.132C149.94 99.492 149.868 99.852 149.868 100.212C149.868 100.788 150.012 101.22 150.3 101.508C150.612 101.796 150.972 101.94 151.38 101.94C151.884 101.94 152.376 101.76 152.856 101.4C153.36 101.04 153.672 100.56 153.792 99.96L154.368 97.188Z" fill="white"/>
<path d="M6.936 47.52H17.88L19.512 68.16L29.496 47.52H34.248L20.04 78H8.712L6.936 47.52Z" fill="white"/>
<path d="M39.3859 68.352C39.2579 69.056 39.1619 69.728 39.0979 70.368C39.0659 71.008 39.0499 71.584 39.0499 72.096C39.0499 72.384 39.0659 72.704 39.0979 73.056C39.1299 73.408 39.1939 73.744 39.2899 74.064C39.4179 74.352 39.5779 74.608 39.7699 74.832C39.9939 75.024 40.2979 75.12 40.6819 75.12C40.9699 75.12 41.2899 75.024 41.6419 74.832C42.0259 74.64 42.3939 74.368 42.7459 74.016C43.1299 73.664 43.4819 73.232 43.8019 72.72C44.1539 72.208 44.4259 71.632 44.6179 70.992H52.4899L51.2419 76.128C50.6019 76.544 49.8659 76.896 49.0339 77.184C48.2019 77.472 47.3219 77.712 46.3939 77.904C45.4659 78.064 44.5219 78.176 43.5619 78.24C42.6019 78.336 41.6899 78.384 40.8259 78.384C39.2259 78.384 37.7379 78.24 36.3619 77.952C34.9859 77.664 33.7859 77.168 32.7619 76.464C31.7379 75.76 30.9219 74.832 30.3139 73.68C29.7379 72.496 29.4499 71.04 29.4499 69.312C29.4499 67.744 29.6899 66.208 30.1699 64.704C30.6819 63.2 31.5139 61.872 32.6659 60.72C33.8499 59.536 35.4179 58.592 37.3699 57.888C39.3539 57.184 41.8179 56.832 44.7619 56.832C47.9619 56.832 50.3619 57.328 51.9619 58.32C53.5939 59.312 54.4099 60.864 54.4099 62.976C54.4099 63.84 54.2819 64.784 54.0259 65.808C53.7699 66.8 53.3859 67.648 52.8739 68.352H39.3859ZM45.7699 62.64C45.7699 61.648 45.6099 60.976 45.2899 60.624C44.9699 60.272 44.5859 60.096 44.1379 60.096C43.6259 60.096 43.1459 60.272 42.6979 60.624C42.2819 60.944 41.8979 61.392 41.5459 61.968C41.1939 62.512 40.8739 63.152 40.5859 63.888C40.2979 64.592 40.0579 65.344 39.8659 66.144H45.3379C45.4019 65.76 45.4659 65.36 45.5299 64.944C45.5939 64.592 45.6419 64.208 45.6739 63.792C45.7379 63.376 45.7699 62.992 45.7699 62.64Z" fill="white"/>
<path d="M59.0599 57.36H66.8839L67.6039 60.96H67.9399C68.6759 59.808 69.6199 58.832 70.7719 58.032C71.9239 57.232 73.4439 56.832 75.3319 56.832C75.4599 56.832 75.6519 56.848 75.9079 56.88C76.1959 56.88 76.4999 56.928 76.8199 57.024C77.1719 57.088 77.5239 57.2 77.8759 57.36C78.2599 57.488 78.6279 57.68 78.9799 57.936L76.8679 67.824H71.6359C71.5719 65.84 71.3959 64.464 71.1079 63.696C70.8199 62.896 70.3559 62.496 69.7159 62.496C69.3959 62.496 69.0439 62.576 68.6599 62.736C68.3079 62.864 67.9399 63.168 67.5559 63.648L64.4839 78H54.6919L59.0599 57.36Z" fill="white"/>
<path d="M87.639 78H77.895L82.263 57.36H92.103L87.639 78ZM93.351 51.072C93.351 51.808 93.191 52.448 92.871 52.992C92.583 53.536 92.183 54 91.671 54.384C91.191 54.768 90.631 55.056 89.991 55.248C89.351 55.44 88.695 55.536 88.023 55.536C86.743 55.536 85.671 55.232 84.807 54.624C83.943 54.016 83.511 53.056 83.511 51.744C83.511 51.04 83.655 50.416 83.943 49.872C84.231 49.296 84.615 48.832 85.095 48.48C85.607 48.096 86.183 47.808 86.823 47.616C87.495 47.424 88.183 47.328 88.887 47.328C90.135 47.328 91.191 47.632 92.055 48.24C92.919 48.848 93.351 49.792 93.351 51.072Z" fill="white"/>
<path d="M94.6455 57.36C95.8295 57.104 96.8695 56.816 97.7655 56.496C98.6615 56.176 99.4775 55.776 100.213 55.296C100.981 54.816 101.701 54.224 102.373 53.52C103.077 52.816 103.829 51.952 104.629 50.928H109.574L108.181 57.36H111.925L111.301 60.576H107.509L105.541 69.936C105.381 70.672 105.254 71.328 105.158 71.904C105.062 72.48 105.013 72.928 105.013 73.248C105.013 73.888 105.238 74.288 105.686 74.448C106.166 74.608 107.046 74.688 108.326 74.688L107.605 78C107.382 78.064 107.03 78.112 106.549 78.144C106.102 78.176 105.589 78.208 105.013 78.24C104.469 78.304 103.894 78.336 103.285 78.336C102.709 78.368 102.197 78.384 101.749 78.384C100.949 78.384 100.165 78.32 99.3975 78.192C98.6295 78.096 97.9415 77.888 97.3335 77.568C96.7255 77.216 96.2295 76.72 95.8455 76.08C95.4935 75.44 95.3175 74.576 95.3175 73.488C95.3175 73.104 95.3335 72.624 95.3655 72.048C95.4295 71.472 95.5415 70.832 95.7015 70.128L97.7175 60.576H93.9735L94.6455 57.36Z" fill="white"/>
<path d="M129.138 57.36H138.93L134.514 78H126.738L125.874 74.928H125.586C124.754 75.92 123.618 76.752 122.178 77.424C120.77 78.064 119.346 78.384 117.906 78.384C115.986 78.384 114.482 77.904 113.394 76.944C112.306 75.952 111.762 74.672 111.762 73.104C111.762 72.304 111.89 71.312 112.146 70.128C112.434 68.912 112.69 67.776 112.914 66.72L114.93 57.36H124.674L122.274 68.592C122.21 68.848 122.146 69.152 122.082 69.504C122.018 69.856 121.954 70.208 121.89 70.56C121.826 70.88 121.762 71.2 121.698 71.52C121.666 71.808 121.65 72.048 121.65 72.24C121.65 72.72 121.746 73.136 121.938 73.488C122.162 73.808 122.546 73.968 123.09 73.968C123.666 73.968 124.21 73.776 124.722 73.392C125.234 73.008 125.634 72.64 125.922 72.288L129.138 57.36Z" fill="white"/>
<path d="M154.049 63.408C154.08 63.248 154.112 63.088 154.144 62.928C154.176 62.768 154.192 62.592 154.192 62.4C154.192 61.824 154.08 61.296 153.856 60.816C153.664 60.304 153.265 60.048 152.657 60.048C152.112 60.048 151.569 60.288 151.024 60.768C150.48 61.216 150.209 61.824 150.209 62.592C150.209 63.104 150.336 63.52 150.592 63.84C150.88 64.128 151.248 64.368 151.696 64.56C152.144 64.752 152.64 64.912 153.185 65.04C153.761 65.168 154.32 65.296 154.864 65.424C155.632 65.616 156.353 65.856 157.024 66.144C157.728 66.4 158.352 66.752 158.896 67.2C159.44 67.648 159.872 68.208 160.192 68.88C160.513 69.52 160.672 70.32 160.672 71.28C160.672 72.624 160.353 73.76 159.713 74.688C159.104 75.584 158.24 76.32 157.12 76.896C156.032 77.44 154.736 77.824 153.232 78.048C151.76 78.272 150.176 78.384 148.48 78.384C145.888 78.384 143.744 78.192 142.049 77.808C140.353 77.424 139.168 77.056 138.496 76.704L139.504 71.904H145.985C145.953 72.064 145.937 72.224 145.937 72.384C145.937 72.512 145.937 72.656 145.937 72.816C145.937 73.552 146.096 74.144 146.416 74.592C146.769 75.008 147.36 75.216 148.192 75.216C149.12 75.216 149.776 74.96 150.16 74.448C150.576 73.904 150.784 73.408 150.784 72.96C150.784 72.512 150.608 72.128 150.256 71.808C149.936 71.456 149.52 71.168 149.008 70.944C148.496 70.688 147.92 70.48 147.28 70.32C146.672 70.128 146.08 69.952 145.504 69.792C145.088 69.696 144.608 69.536 144.064 69.312C143.552 69.088 143.056 68.768 142.576 68.352C142.097 67.936 141.697 67.408 141.377 66.768C141.056 66.096 140.896 65.264 140.896 64.272C140.896 62.864 141.233 61.696 141.905 60.768C142.608 59.808 143.504 59.04 144.592 58.464C145.712 57.888 146.96 57.472 148.336 57.216C149.744 56.96 151.152 56.832 152.56 56.832C154.32 56.832 155.985 56.992 157.552 57.312C159.12 57.632 160.4 58.048 161.392 58.56L160.288 63.408H154.049Z" fill="white"/>
</svg>
